<?xml version="1.0" encoding="utf-8"?>
<!-- Generator: Adobe Illustrator 21.1.0, SVG Export Plug-In . SVG Version: 6.00 Build 0)  -->
<svg version="1.1" id="Layer_1" xmlns="http://www.w3.org/2000/svg" xmlns:xlink="http://www.w3.org/1999/xlink" x="0px" y="0px"
	 viewBox="0 0 5.8 10" style="enable-background:new 0 0 5.8 10;" xml:space="preserve" fill="#FFF">
<path d="M0.6,0.1L0.1,0.6C0,0.7,0,0.9,0.1,1c0,0,0,0,0,0L4,5L0.1,8.9C0,9.1,0,9.3,0.1,9.4c0,0,0,0,0,0l0.5,0.5C0.7,10,0.9,10,1,9.9
	c0,0,0,0,0,0l4.7-4.7c0.1-0.1,0.1-0.3,0-0.4c0,0,0,0,0,0L1.1,0.1C0.9,0,0.7,0,0.6,0.1C0.6,0.1,0.6,0.1,0.6,0.1L0.6,0.1z"/>
</svg>
