<?xml version="1.0" encoding="utf-8"?>
<!-- Generator: Adobe Illustrator 21.1.0, SVG Export Plug-In . SVG Version: 6.00 Build 0)  -->
<svg version="1.1" id="Layer_1" xmlns="http://www.w3.org/2000/svg" xmlns:xlink="http://www.w3.org/1999/xlink" x="0px" y="0px"
	 viewBox="0 0 23 23" style="enable-background:new 0 0 23 23;" xml:space="preserve">
<style type="text/css">
	.st0{fill:#2980B9;}
	.st1{fill:#FFFFFF;}
</style>
<g>
	<path class="st0" d="M23,11.5C23,17.9,17.9,23,11.5,23S0,17.9,0,11.5S5.1,0,11.5,0C17.8,0,23,5.2,23,11.5z"/>
	<path class="st1" d="M12.5,16.4c0.3,0.2,0.4,0.6,0.3,0.9c0,0.7-0.6,1.2-1.2,1.2c-0.7,0-1.2-0.6-1.3-1.2c0-0.7,0.5-1.3,1.1-1.3
		c0,0,0.1,0,0.1,0C11.9,16,12.2,16.2,12.5,16.4z M12.5,12.9v1.6c0,0.6-0.5,1.1-1.1,1.1h-0.1c-0.6,0-1.1-0.5-1.1-1.1c0,0,0,0,0,0
		v-2.5c0-0.3,0.2-0.7,0.4-0.9c0.2-0.2,0.5-0.3,0.8-0.3h0.1c0.9,0,1.6-0.8,1.6-1.6c0-0.4-0.2-0.9-0.5-1.1c-0.3-0.3-0.7-0.4-1.1-0.4
		c-1,0-1.7,0.8-1.7,1.7v0.1c0,0.6-0.5,1.1-1.1,1.1c-0.6,0-1.1-0.5-1.1-1.1c0,0,0,0,0,0V9c0-1,0.4-2,1.2-2.8c0.7-0.7,1.7-1.2,2.8-1.2
		h0.1c1.9,0,3.4,1.4,3.7,3.2C15.6,10.3,14.4,12.2,12.5,12.9z"/>
</g>
</svg>
