<?xml version="1.0" encoding="utf-8"?>
<!-- Generator: Adobe Illustrator 21.1.0, SVG Export Plug-In . SVG Version: 6.00 Build 0)  -->
<svg version="1.1" id="Layer_1" xmlns="http://www.w3.org/2000/svg" xmlns:xlink="http://www.w3.org/1999/xlink" x="0px" y="0px"
	 viewBox="0 0 17 15.8" style="enable-background:new 0 0 17 15.8;" xml:space="preserve" fill="#FFF">
<path d="M16.7,7.2l-2.6-2.6v-3c0-0.5-0.4-1-1-1c-0.5,0-1,0.4-1,1v1l-1.9-1.9c-1-0.9-2.6-0.9-3.5,0L0.3,7.2c-0.4,0.4-0.4,1,0,1.4
	c0.4,0.4,1,0.4,1.3,0l6.4-6.4c0.2-0.2,0.6-0.2,0.8,0l6.4,6.4c0.4,0.4,1,0.4,1.4,0C17.1,8.2,17.1,7.6,16.7,7.2
	C16.7,7.2,16.7,7.2,16.7,7.2z M8.8,3.9c-0.2-0.2-0.5-0.2-0.7,0c0,0,0,0,0,0L2.5,9.6C2.4,9.7,2.4,9.8,2.4,9.9v4.1
	c0,1,0.8,1.8,1.8,1.8h2.8v-4.3h3.2v4.3h2.8c1,0,1.8-0.8,1.8-1.8V9.9c0-0.1-0.1-0.2-0.1-0.3L8.8,3.9z"/>
</svg>
