<?xml version="1.0" encoding="iso-8859-1"?>
<!-- Generator: Adobe Illustrator 16.0.0, SVG Export Plug-In . SVG Version: 6.00 Build 0)  -->
<!DOCTYPE svg PUBLIC "-//W3C//DTD SVG 1.1//EN" "http://www.w3.org/Graphics/SVG/1.1/DTD/svg11.dtd">
<svg version="1.1" id="Capa_1" xmlns="http://www.w3.org/2000/svg" xmlns:xlink="http://www.w3.org/1999/xlink" x="0px" y="0px"
	 width="950px" height="950px" viewBox="0 0 950 950" style="enable-background:new 0 0 950 950;" xml:space="preserve" fill="#2980B9">
<g>
	<path d="M226.1,702.799H414.2c11.5,0,20.899-9.299,20.899-20.898V564.4H331.3V597.1H226.1c-66.5,0-120.3-53.9-120.3-120.301v-3.5
		c0-66.5,53.9-120.3,120.3-120.3h105.2v32.7h103.8V268c0-11.5-9.3-20.9-20.899-20.9H226.1c-60.4,0-117.2,23.5-159.9,66.2
		C23.5,356,0,412.799,0,473.2v3.5C0,537.1,23.5,593.9,66.2,636.6C108.9,679.299,165.7,702.799,226.1,702.799z"/>
	<path d="M723.899,247.2H531.8c-11.5,0-20.9,9.3-20.9,20.9v117.6H618.7V353h105.199c66.5,0,120.301,53.9,120.301,120.3v3.5
		c0,66.5-53.9,120.301-120.301,120.301H618.7V564.4H510.899V682c0,11.5,9.301,20.9,20.9,20.9h192.1c60.4,0,117.2-23.5,159.9-66.201
		c42.7-42.699,66.2-99.5,66.2-159.9v-3.5c0-60.399-23.5-117.2-66.2-159.9S784.3,247.2,723.899,247.2z"/>
	<path d="M331.3,425H300c-27.6,0-50,22.4-50,50c0,27.6,22.4,50,50,50h31.3h103.8H511h107.8h31.3c27.601,0,50-22.4,50-50
		c0-27.6-22.399-50-50-50h-31.3h-107.9H435H331.3z"/>
</g>
</svg>
