<?xml version="1.0" encoding="utf-8"?>
<!-- Generator: Adobe Illustrator 21.1.0, SVG Export Plug-In . SVG Version: 6.00 Build 0)  -->
<svg version="1.1" id="Layer_1" xmlns="http://www.w3.org/2000/svg" xmlns:xlink="http://www.w3.org/1999/xlink" x="0px" y="0px"
	 viewBox="0 0 33.3 30" style="enable-background:new 0 0 33.3 30;" xml:space="preserve" fill="#FFF">
<path d="M14.4,14.4h-3.3v7.8h1.1v-3.3h2.2c1.2,0,2.2-1,2.2-2.2C16.7,15.4,15.7,14.4,14.4,14.4L14.4,14.4L14.4,14.4z M14.4,17.8h-2.2
	v-2.2h2.2c0.6,0,1.1,0.5,1.1,1.1C15.5,17.3,15.1,17.8,14.4,17.8z M21.1,14.4h-3.3v7.8h3.3c1.2,0,2.2-1,2.2-2.2v-3.3
	C23.3,15.4,22.3,14.4,21.1,14.4z M22.2,20c0,0.6-0.4,1.1-1,1.1c0,0-0.1,0-0.1,0h-2.2v-5.6h2.2c0.6,0,1.1,0.4,1.1,1c0,0,0,0.1,0,0.1
	V20z M30,11.1h-8.9V7.8L14.4,0H2.2C1,0,0,1,0,2.2v25.6C0,29,1,30,2.2,30h16.7c1.2,0,2.2-1,2.2-2.2v-2.2H30c1.8,0,3.3-1.4,3.3-3.2
	c0,0,0-0.1,0-0.1v-7.8c0-1.8-1.4-3.3-3.2-3.3C30.1,11.1,30,11.1,30,11.1z M14.4,1.7l5.2,6.1h-4.1c-0.6,0-1.1-0.5-1.1-1.1L14.4,1.7z
	 M20,27.8c0,0.6-0.5,1.1-1.1,1.1H2.2c-0.6,0-1.1-0.5-1.1-1.1V2.2c0-0.6,0.5-1.1,1.1-1.1h11.1v5.6c0,1.2,1,2.2,2.2,2.2H20v2.2h-8.9
	c-1.8,0-3.3,1.4-3.3,3.2c0,0,0,0.1,0,0.1v7.8c0,1.8,1.4,3.3,3.2,3.3c0,0,0.1,0,0.1,0H20V27.8z M32.2,22.2c0,1.2-1,2.2-2.2,2.2H11.1
	c-1.2,0-2.2-1-2.2-2.2v-7.8c0-1.2,1-2.2,2.2-2.2H30c1.2,0,2.2,1,2.2,2.2V22.2z M24.4,22.2h1.1v-3.3h3.3v-1.1h-3.3v-2.2H30v-1.1h-5.6
	V22.2z"/>
</svg>
