<?xml version="1.0" encoding="utf-8"?>
<!-- Generator: Adobe Illustrator 21.1.0, SVG Export Plug-In . SVG Version: 6.00 Build 0)  -->
<svg version="1.1" id="Layer_1" xmlns="http://www.w3.org/2000/svg" xmlns:xlink="http://www.w3.org/1999/xlink" x="0px" y="0px"
	 viewBox="0 0 29 30" style="enable-background:new 0 0 29 30;" xml:space="preserve" fill="#FFF">
<path d="M7,23h15v1H7V23z M7,26h15v1H7V26z M23,13c0.6,0,1,0.4,1,1c0,0.6-0.4,1-1,1s-1-0.4-1-1C22,13.4,22.4,13,23,13z M26,9h-2V2
	c0-1.1-0.9-2-2-2H7C5.9,0,5,0.9,5,2v7H3c-1.6,0-3,1.3-3,2.9c0,0,0,0.1,0,0.1v9c0,1.6,1.3,3,2.9,3c0,0,0.1,0,0.1,0h2v4
	c0,1.1,0.9,2,2,2h15c1.1,0,2-0.9,2-2v-4h2c1.6,0,3-1.3,3-2.9c0,0,0-0.1,0-0.1v-9c0-1.6-1.3-3-2.9-3C26.1,9,26,9,26,9z M6,2
	c0-0.6,0.4-1,1-1h15c0.6,0,1,0.4,1,1v7H6V2z M23,28c0,0.6-0.4,1-1,1H7c-0.6,0-1-0.4-1-1v-7h17V28z M28,21c0,1.1-0.9,2-2,2h-2v-3H5v3
	H3c-1.1,0-2-0.9-2-2v-9c0-1.1,0.9-2,2-2h23c1.1,0,2,0.9,2,2V21z"/>
</svg>
